General
      Complete name : Dark.City.1998.Directors.Cut.BRRip.H264.AAC.5.1ch.Gopo.mp4
      Format : MPEG-4
      Format profile : Base Media
      Codec ID : isom
      File size : 1.80 GiB
      Duration : 1h 51mn
      Overall bit rate : 2 311 Kbps
      Encoded date : UTC 2010-02-01 22:41:51
      Tagged date : UTC 2010-02-01 22:41:51
   Video #1
      ID : 1
      Format : AVC
      Format/Info : Advanced Video Codec
      Format profile : High@L4.1
      Format settings, CABAC : Yes
      Format settings, ReFrames : 5 frames
      Codec ID : avc1
      Codec ID/Info : Advanced Video Coding
      Duration : 1h 51mn
      Bit rate mode : Variable
      Bit rate : 1 974 Kbps
      Maximum bit rate : 10.9 Mbps
      Width : 1 280 pixels
      Height : 544 pixels
      Display aspect ratio : 2.35:1
      Frame rate mode : Constant
      Frame rate : 23.976 fps
      Resolution : 24 bits
      Colorimetry : 4:2:0
      Scan type : Progressive
      Bits/(Pixel*Frame) : 0.118
      Stream size : 1.54 GiB (85%)
      Writing library : x264 core 84 r1416 fcf70c2
      Encoding settings : cabac=1 / ref=5 / deblock=1:0:0 / analyse=0x3:0x113 / me=hex / subme=7 / psy=1 / psy_rd=1.0:0.0 / mixed_ref=1 / me_range=16 / chroma_me=1 / trellis=0 / 8x8dct=1 / cqm=0 / deadzone=21,11 / fast_pskip=1 / chroma_qp_offset=-2 / threads=3 / sliced_threads=0 / nr=0 / decimate=1 / mbaff=0 / constrained_intra=0 / bframes=3 / b_pyramid=0 / b_adapt=1 / b_bias=0 / direct=1 / wpredb=1 / wpredp=2 / keyint=250 / keyint_min=25 / scenecut=40 / intra_refresh=0 / rc_lookahead=40 / rc=2pass / mbtree=1 / bitrate=1974 / ratetol=1.0 / qcomp=0.60 / qpmin=10 / qpmax=51 / qpstep=4 / cplxblur=20.0 / qblur=0.5 / vbv_maxrate=31250 / vbv_bufsize=31250 / ip_ratio=1.40 / aq=1:1.00 / cabac=1 / ref=5 / deblock=1:0:0 / analyse=0x3:0x113 / me=hex / subme=7 / psy=1 / psy_rd=1.0:0.0 / mixed_ref=1 / me_range=16 / chroma_me=1 / trellis=0 / 8x8dct=1 / cqm=0 / deadzone=21,11 / fast_pskip=1 / chroma_qp_offset=-2 / threads=3 / sliced_threads=0 / nr=0 / decimate=1 / mbaff=0 / constrained_intra=0 / bframes=3 / b_pyramid=0 / b_adapt=1 / b_bias=0 / direct=1 / wpredb=1 / wpredp=2 / keyint=250 / keyint_min=25 / scenecut=40 / intra_refresh=0 / rc_lookahead=40 / rc=2pass / mbtree=1 / bitrate=1974 / ratetol=1.0 / qcomp=0.60 / qpmin=10 / qpmax=51 / qpstep=4 / cplxblur=20.0 / qblur=0.5 / vbv_maxrate=31250 / vbv_bufsize=31250 / ip_ratio=1.40 / aq=1:1.00
      Encoded date : UTC 2010-02-01 12:06:41
      Tagged date : UTC 2010-02-01 22:46:39
   Audio #2
      ID : 2
      Format : AAC
      Format/Info : Advanced Audio Codec
      Format version : Version 4
      Format profile : LC
      Format settings, SBR : No
      Codec ID : 40
      Duration : 1h 51mn
      Bit rate mode : Variable
      Bit rate : 334 Kbps
      Maximum bit rate : 411 Kbps
      Channel(s) : 6 channels
      Channel positions : Front: L C R, Rear: L R, LFE
      Sampling rate : 48.0 KHz
      Resolution : 16 bits
      Stream size : 267 MiB (14%)
      Encoded date : UTC 2010-02-01 22:46:05
      Tagged date : UTC 2010-02-01 22:46:39
	Sample : YES
	Subtitle : English,Romanian

PLOT

A man struggles with memories of his past, including a wife he cannot remember, in a nightmarish world with no sun and run by beings with telekinetic powers who seek the souls of humans.
Director: Alex Proyas
CASTING 
     
      Rufus Sewell	... 	John Murdoch
	William Hurt	... 	Inspector Frank Bumstead
	Kiefer Sutherland	... 	Dr. Daniel P. Schreber
	Jennifer Connelly	... 	Emma Murdoch / Anna
	Richard O'Brien	... 	Mr. Hand
	Ian Richardson	... 	Mr. Book
	Bruce Spence	... 	Mr. Wall
	Colin Friels	... 	Det. Eddie Walenski
	John Bluthal	... 	Karl Harris
	Mitchell Butel	... 	Officer Husselbeck
	Melissa George	... 	May
	Frank Gallacher	... 	Chief Insp. Stromboli
	Ritchie Singer	... 	Hotel Manager / Vendor
	Justin Monjo	... 	Taxi Driver
	Nicholas Bell	... 	Mr. Rain

SOURCE: Dark.City.1998.Directors.Cut.720p.BluRay.x264-SiNNERS.mkv

Notes: For best performance I suggest you to use KMPlayer(find it with google) for playback
I haven't tested the movies on a PS3 or Xbox or other devices than PC because I don't own one of them but feel free to test them if you have the oportunity.
